<svg width="47" height="47" viewBox="0 0 47 47" fill="none" xmlns="http://www.w3.org/2000/svg">
<path fill-rule="evenodd" clip-rule="evenodd" d="M23.143 4.17566C12.4769 4.17566 3.85449 12.8617 3.85449 23.6075C3.85449 32.1971 9.37919 39.4681 17.0434 42.0416C18.0016 42.235 18.3526 41.6235 18.3526 41.109C18.3526 40.6585 18.3211 39.1144 18.3211 37.5055C12.9555 38.6639 11.8381 35.1891 11.8381 35.1891C10.9758 32.937 9.69821 32.3582 9.69821 32.3582C7.94205 31.1679 9.82613 31.1679 9.82613 31.1679C11.7742 31.2966 12.7964 33.1625 12.7964 33.1625C14.5205 36.122 17.2989 35.2858 18.4166 34.771C18.5761 33.5162 19.0874 32.6476 19.6303 32.1652C15.3508 31.7147 10.8483 30.0418 10.8483 22.5778C10.8483 20.4544 11.6143 18.7172 12.8279 17.3662C12.6365 16.8837 11.9657 14.8887 13.0198 12.2185C13.0198 12.2185 14.6484 11.7037 18.3207 14.2131C19.8929 13.7878 21.5143 13.5714 23.143 13.5696C24.7716 13.5696 26.4318 13.795 27.9649 14.2131C31.6375 11.7037 33.2661 12.2185 33.2661 12.2185C34.3203 14.8887 33.6491 16.8837 33.4576 17.3662C34.7033 18.7172 35.4376 20.4544 35.4376 22.5778C35.4376 30.0418 30.9351 31.6823 26.6237 32.1652C27.3265 32.7763 27.9329 33.9344 27.9329 35.7683C27.9329 38.3741 27.9013 40.4654 27.9013 41.1086C27.9013 41.6235 28.2527 42.235 29.2106 42.042C36.8748 39.4677 42.3995 32.1971 42.3995 23.6075C42.4311 12.8617 33.777 4.17566 23.143 4.17566Z" fill="#E8E8E8"/>
</svg>
