<svg width="47" height="47" viewBox="0 0 47 47" fill="none" xmlns="http://www.w3.org/2000/svg">
<path d="M41.0423 8.33252V37.9215C41.0423 38.598 40.7698 39.2468 40.2847 39.7252C39.7996 40.2036 39.1417 40.4723 38.4556 40.4723H8.44986C7.76383 40.4723 7.10589 40.2036 6.62079 39.7252C6.13569 39.2468 5.86316 38.598 5.86316 37.9215V8.33252C5.86316 7.65601 6.13569 7.00721 6.62079 6.52884C7.10589 6.05048 7.76383 5.78174 8.44986 5.78174H38.4556C39.1417 5.78174 39.7996 6.05048 40.2847 6.52884C40.7698 7.00721 41.0423 7.65601 41.0423 8.33252ZM16.21 19.0458H11.0366V35.3708H16.21V19.0458ZM16.6756 13.4341C16.6783 13.0482 16.6039 12.6655 16.4567 12.308C16.3094 11.9504 16.0922 11.625 15.8174 11.3502C15.5427 11.0755 15.2157 10.8568 14.8552 10.7066C14.4947 10.5565 14.1077 10.4778 13.7164 10.4752H13.6233C12.8275 10.4752 12.0643 10.7869 11.5015 11.3418C10.9388 11.8967 10.6227 12.6493 10.6227 13.4341C10.6227 14.2188 10.9388 14.9714 11.5015 15.5263C12.0643 16.0812 12.8275 16.393 13.6233 16.393C14.0146 16.4025 14.404 16.3358 14.7693 16.1969C15.1345 16.0579 15.4684 15.8493 15.7518 15.5831C16.0353 15.3168 16.2628 14.9981 16.4213 14.6451C16.5798 14.2921 16.6662 13.9118 16.6756 13.5259V13.4341ZM35.8689 25.4533C35.8689 20.5456 32.7028 18.6377 29.5574 18.6377C28.5275 18.5868 27.5021 18.8031 26.5834 19.265C25.6648 19.7269 24.885 20.4182 24.3219 21.2701H24.177V19.0458H19.314V35.3708H24.4874V26.6879C24.4126 25.7986 24.6967 24.9162 25.2779 24.2323C25.8591 23.5483 26.6905 23.1182 27.5915 23.0352H27.7881C29.4332 23.0352 30.6541 24.0555 30.6541 26.6267V35.3708H35.8275L35.8689 25.4533Z" fill="#E8E8E8"/>
</svg>
