<svg width="40" height="33" viewBox="0 0 40 33" fill="none" xmlns="http://www.w3.org/2000/svg">
<path fill-rule="evenodd" clip-rule="evenodd" d="M39.794 1.08964C39.9246 0.972422 40 0.799359 40 0.616945V0.616945C40 0.276216 39.742 0 39.4237 0H0.894632C0.40054 0 0 0.428792 0 0.957735V0.957735C0 1.24246 0.118334 1.51242 0.322898 1.69437L19.1058 18.4015C19.5151 18.7656 20.1091 18.7642 20.5168 18.3981L39.794 1.08964ZM1.80448 6.58761C1.08713 5.94954 0 6.49567 0 7.49411V31.8214C0 32.4723 0.492897 33 1.10092 33H38.8991C39.5071 33 40 32.4723 40 31.8214V7.0206C40 6.01962 38.908 5.47434 38.1916 6.11759L20.6419 21.8749L20.5245 21.9803C20.1168 22.3464 19.5228 22.3479 19.1135 21.9838L18.9957 21.879L1.80448 6.58761Z" fill="#E8E8E8"/>
</svg>
